<svg viewBox="0 0 82 18" xmlns="http://www.w3.org/2000/svg"><mask id="a" maskUnits="userSpaceOnUse" x="0" y="0" width="82" height="18"><path d="M0 0h82v18H0V0z" fill="#fff"/></mask><g mask="url(#a)" fill-rule="evenodd" clip-rule="evenodd"><path d="M78.757 17.761H82V0h-3.243v17.761zM22.433 9.515H17.64c.124-1.153.364-2.37 2.366-2.37 2.316 0 2.37 1.143 2.422 2.248l.006.122zm-2.315-5.151h-.158c-1.318 0-3.137.29-4.321 1.67-1.022 1.168-1.608 2.916-1.608 4.797v.48c0 .314.042 1.96.868 3.55.857 1.652 2.271 2.636 4.09 2.846.312.036.649.054 1 .054 2.18 0 4.327-.684 4.417-.713l.15-.049v-2.525s-2.83.328-3.765.358c-2.856.095-3.192-1.401-3.227-2.578h8.015V9.998c0-1.855-.46-3.228-1.406-4.199-1.138-1.186-2.833-1.435-4.055-1.435zm21.015 5.167h-4.795c.124-1.152.365-2.369 2.367-2.369 2.316 0 2.37 1.143 2.422 2.248l.006.121zm-2.316-5.15h-.157c-1.318 0-3.138.29-4.321 1.669-1.022 1.168-1.608 2.917-1.608 4.798v.48c0 .314.042 1.96.867 3.55.858 1.652 2.272 2.636 4.09 2.845.313.036.65.055 1 .055 2.18 0 4.328-.684 4.418-.714l.15-.048V14.49s-2.83.328-3.765.359c-2.856.095-3.192-1.402-3.227-2.579h8.015v-2.255c0-1.855-.46-3.229-1.406-4.2-1.139-1.186-2.834-1.435-4.055-1.435zm34.656 5.15H68.68c.124-1.152.365-2.369 2.366-2.369 2.316 0 2.37 1.143 2.423 2.248l.005.121zm-2.315-5.15H71c-1.318 0-3.137.29-4.32 1.669-1.023 1.168-1.609 2.917-1.609 4.798v.48c0 .314.042 1.96.868 3.55.858 1.652 2.272 2.636 4.09 2.845.312.036.649.055 1 .055 2.18 0 4.327-.684 4.418-.714l.15-.048V14.49s-2.83.328-3.766.359c-2.856.095-3.192-1.402-3.227-2.579h8.016v-2.255c0-1.855-.461-3.229-1.407-4.2-1.138-1.186-2.834-1.435-4.055-1.435zM27.717 17.778h3.243V0h-3.243v17.778z" fill="#404042"/><path d="M4.376 9.924c.82.328 3.054 1.227 3.545 1.439.33.143.576.362.732.653l.061.114h3.503l-.03-.26c-.319-2.823-2.113-3.529-3.85-4.211-.582-.23-1.62-.61-2.38-.888-.42-.155-.752-.276-.838-.31-1.004-.4-1.826-.82-1.72-1.91.09-.922.805-1.3 2.469-1.307 1.682.004 5.08.31 5.114.313l.23.02V.715l-.16-.045C11.029.664 7.816.013 5.824 0h-.082c-1.448 0-2.649.267-3.57.795C.731 1.62 0 3.05 0 5.042c0 2.191 1.309 3.651 4.376 4.882z" fill="#C02C25"/><path d="M8.688 13.677c-.388.87-1.471.954-2.563.954h-.131c-1.743 0-5.488-.413-5.526-.417l-.233-.026v3.05l.16.042c.027.008 3.15.72 5.435.72 3.847 0 6.04-1.494 6.363-4.323H8.688z" fill="#404042"/><path d="M60.855 7.315h2.884v-2.82h-2.884V0h-3.287v12.145h3.287v-4.83z" fill="#C02C25"/><path d="M62.37 14.796c-1.022 0-1.47-.324-1.511-1.11h-3.29c.028 2.755 1.77 3.898 3.404 4.047.118.011.25.017.393.017 1.003 0 2.479-.315 2.479-.315V14.7s-1.178.097-1.475.097zM52.224 4.44c-.533 0-1.02.028-1.448.082-1.769.224-3.13 1.248-3.935 2.958-.735 1.56-.792 3.168-.792 3.623 0 .453.057 2.051.794 3.608.805 1.703 2.165 2.731 3.93 2.973.375.051.818.077 1.319.077 1.531 0 3.15-.243 3.166-.246l.181-.027v-2.836s-1.773.128-2.665.128c-1.107 0-1.584-.076-1.79-.139-1.248-.384-1.374-2.395-1.37-3.241v-.593c-.004-.866.12-2.918 1.361-3.24.363-.093 1.004-.143 1.855-.143.888 0 2.61.13 2.61.13V4.705l-.18-.029c-.015-.002-1.487-.236-3.036-.236z" fill="#404042"/></g></svg>